<svg width="21" height="21" xmlns="http://www.w3.org/2000/svg" preserveAspectRatio="xMidYMid meet">

 <g>
  <title>Layer 1</title>
  <path id="svg_1" fill="#ffffff" d="m10.56075,5.48358c-0.55,0 -1,0.45 -1,1l0,3l-3,0c-0.55,0 -1,0.45 -1,1s0.45,1 1,1l3,0l0,3c0,0.55 0.45,1 1,1s1,-0.45 1,-1l0,-3l3,0c0.55,0 1,-0.45 1,-1s-0.45,-1 -1,-1l-3,0l0,-3c0,-0.55 -0.45,-1 -1,-1zm0,-5c-5.52,0 -10,4.48 -10,10s4.48,10 10,10s10,-4.48 10,-10s-4.48,-10 -10,-10zm0,18c-4.41,0 -8,-3.59 -8,-8s3.59,-8 8,-8s8,3.59 8,8s-3.59,8 -8,8z"/>
 </g>
</svg>